<svg id="visual" viewBox="0 0 960 540" width="960" height="540" xmlns="http://www.w3.org/2000/svg" xmlns:xlink="http://www.w3.org/1999/xlink" version="1.1"><g stroke-width="1" stroke-linejoin="bevel"><path d="M467 263L506 238L472 223Z" fill="#2a009f" stroke="#2a009f"></path><path d="M467 263L523 271L506 238Z" fill="#4000ae" stroke="#4000ae"></path><path d="M478 171L444 204L472 223Z" fill="#000080" stroke="#000080"></path><path d="M472 223L444 204L467 263Z" fill="#5300be" stroke="#5300be"></path><path d="M397 221L429 286L467 263Z" fill="#7e01e5" stroke="#7e01e5"></path><path d="M467 263L474 318L523 271Z" fill="#000080" stroke="#000080"></path><path d="M534 186L472 223L506 238Z" fill="#8c01f2" stroke="#8c01f2"></path><path d="M534 186L478 171L472 223Z" fill="#5300be" stroke="#5300be"></path><path d="M429 286L474 318L467 263Z" fill="#2a009f" stroke="#2a009f"></path><path d="M562 206L534 186L506 238Z" fill="#000000" stroke="#000000"></path><path d="M523 271L562 206L506 238Z" fill="#09008f" stroke="#09008f"></path><path d="M413 164L397 221L444 204Z" fill="#7e01e5" stroke="#7e01e5"></path><path d="M444 204L397 221L467 263Z" fill="#000000" stroke="#000000"></path><path d="M474 318L499 333L523 271Z" fill="#7e01e5" stroke="#7e01e5"></path><path d="M599 244L592 217L562 206Z" fill="#5300be" stroke="#5300be"></path><path d="M557 143L494 154L534 186Z" fill="#09008f" stroke="#09008f"></path><path d="M534 186L494 154L478 171Z" fill="#6f01d8" stroke="#6f01d8"></path><path d="M478 171L413 164L444 204Z" fill="#2a009f" stroke="#2a009f"></path><path d="M429 286L458 334L474 318Z" fill="#6f01d8" stroke="#6f01d8"></path><path d="M474 318L458 334L499 333Z" fill="#8c01f2" stroke="#8c01f2"></path><path d="M501 372L523 334L499 333Z" fill="#5300be" stroke="#5300be"></path><path d="M499 333L523 334L523 271Z" fill="#000080" stroke="#000080"></path><path d="M447 126L413 164L478 171Z" fill="#000000" stroke="#000000"></path><path d="M356 202L375 253L397 221Z" fill="#9b00ff" stroke="#9b00ff"></path><path d="M397 221L375 253L429 286Z" fill="#6f01d8" stroke="#6f01d8"></path><path d="M429 286L409 331L458 334Z" fill="#000000" stroke="#000000"></path><path d="M413 164L381 197L397 221Z" fill="#000000" stroke="#000000"></path><path d="M599 244L562 206L523 271Z" fill="#8c01f2" stroke="#8c01f2"></path><path d="M562 206L557 143L534 186Z" fill="#7e01e5" stroke="#7e01e5"></path><path d="M375 253L409 331L429 286Z" fill="#9b00ff" stroke="#9b00ff"></path><path d="M604 306L599 244L523 271Z" fill="#5300be" stroke="#5300be"></path><path d="M494 154L447 126L478 171Z" fill="#4000ae" stroke="#4000ae"></path><path d="M374 149L356 202L381 197Z" fill="#4000ae" stroke="#4000ae"></path><path d="M606 199L557 143L562 206Z" fill="#7e01e5" stroke="#7e01e5"></path><path d="M494 154L501 112L447 126Z" fill="#2a009f" stroke="#2a009f"></path><path d="M474 380L499 333L458 334Z" fill="#2a009f" stroke="#2a009f"></path><path d="M474 380L501 372L499 333Z" fill="#09008f" stroke="#09008f"></path><path d="M523 334L577 336L523 271Z" fill="#7e01e5" stroke="#7e01e5"></path><path d="M569 367L577 336L523 334Z" fill="#8c01f2" stroke="#8c01f2"></path><path d="M626 233L606 199L592 217Z" fill="#2a009f" stroke="#2a009f"></path><path d="M592 217L606 199L562 206Z" fill="#6101cb" stroke="#6101cb"></path><path d="M374 149L381 197L413 164Z" fill="#09008f" stroke="#09008f"></path><path d="M381 197L356 202L397 221Z" fill="#000080" stroke="#000080"></path><path d="M520 111L501 112L494 154Z" fill="#5300be" stroke="#5300be"></path><path d="M436 385L474 380L458 334Z" fill="#09008f" stroke="#09008f"></path><path d="M577 336L604 306L523 271Z" fill="#6f01d8" stroke="#6f01d8"></path><path d="M599 244L626 233L592 217Z" fill="#09008f" stroke="#09008f"></path><path d="M373 360L405 358L409 331Z" fill="#7e01e5" stroke="#7e01e5"></path><path d="M409 331L405 358L458 334Z" fill="#6101cb" stroke="#6101cb"></path><path d="M373 360L409 331L338 336Z" fill="#8c01f2" stroke="#8c01f2"></path><path d="M557 143L520 111L494 154Z" fill="#5300be" stroke="#5300be"></path><path d="M604 306L622 252L599 244Z" fill="#6101cb" stroke="#6101cb"></path><path d="M622 252L626 233L599 244Z" fill="#09008f" stroke="#09008f"></path><path d="M395 85L374 149L413 164Z" fill="#7e01e5" stroke="#7e01e5"></path><path d="M501 112L452 100L447 126Z" fill="#7e01e5" stroke="#7e01e5"></path><path d="M447 126L395 85L413 164Z" fill="#000000" stroke="#000000"></path><path d="M454 60L452 100L501 112Z" fill="#8c01f2" stroke="#8c01f2"></path><path d="M405 358L436 385L458 334Z" fill="#000000" stroke="#000000"></path><path d="M534 387L569 367L523 334Z" fill="#5300be" stroke="#5300be"></path><path d="M648 350L660 296L604 306Z" fill="#4000ae" stroke="#4000ae"></path><path d="M534 387L523 334L501 372Z" fill="#7e01e5" stroke="#7e01e5"></path><path d="M566 413L534 387L543 440Z" fill="#9b00ff" stroke="#9b00ff"></path><path d="M474 380L534 387L501 372Z" fill="#09008f" stroke="#09008f"></path><path d="M557 143L554 107L520 111Z" fill="#6f01d8" stroke="#6f01d8"></path><path d="M520 111L543 85L501 112Z" fill="#4000ae" stroke="#4000ae"></path><path d="M640 146L554 107L557 143Z" fill="#09008f" stroke="#09008f"></path><path d="M640 146L557 143L606 199Z" fill="#2a009f" stroke="#2a009f"></path><path d="M338 336L409 331L375 253Z" fill="#6f01d8" stroke="#6f01d8"></path><path d="M377 424L410 437L436 385Z" fill="#000000" stroke="#000000"></path><path d="M321 157L325 201L356 202Z" fill="#4000ae" stroke="#4000ae"></path><path d="M356 202L311 243L375 253Z" fill="#5300be" stroke="#5300be"></path><path d="M622 252L651 250L626 233Z" fill="#5300be" stroke="#5300be"></path><path d="M626 233L647 176L606 199Z" fill="#000080" stroke="#000080"></path><path d="M666 260L651 250L660 296Z" fill="#4000ae" stroke="#4000ae"></path><path d="M651 250L622 252L660 296Z" fill="#4000ae" stroke="#4000ae"></path><path d="M583 42L543 85L554 107Z" fill="#6f01d8" stroke="#6f01d8"></path><path d="M554 107L543 85L520 111Z" fill="#9b00ff" stroke="#9b00ff"></path><path d="M311 243L338 336L375 253Z" fill="#9b00ff" stroke="#9b00ff"></path><path d="M325 201L311 243L356 202Z" fill="#09008f" stroke="#09008f"></path><path d="M651 250L647 176L626 233Z" fill="#6f01d8" stroke="#6f01d8"></path><path d="M454 60L395 85L452 100Z" fill="#2a009f" stroke="#2a009f"></path><path d="M452 100L395 85L447 126Z" fill="#000000" stroke="#000000"></path><path d="M374 149L321 157L356 202Z" fill="#6101cb" stroke="#6101cb"></path><path d="M660 296L622 252L604 306Z" fill="#4000ae" stroke="#4000ae"></path><path d="M651 250L720 185L647 176Z" fill="#6101cb" stroke="#6101cb"></path><path d="M310 95L321 157L374 149Z" fill="#6f01d8" stroke="#6f01d8"></path><path d="M325 201L295 189L311 243Z" fill="#6f01d8" stroke="#6f01d8"></path><path d="M648 350L604 306L577 336Z" fill="#7e01e5" stroke="#7e01e5"></path><path d="M647 176L640 146L606 199Z" fill="#6101cb" stroke="#6101cb"></path><path d="M502 31L454 60L501 112Z" fill="#09008f" stroke="#09008f"></path><path d="M543 440L534 387L494 466Z" fill="#000080" stroke="#000080"></path><path d="M534 387L566 413L569 367Z" fill="#9b00ff" stroke="#9b00ff"></path><path d="M569 367L648 350L577 336Z" fill="#000080" stroke="#000080"></path><path d="M304 342L319 352L338 336Z" fill="#000080" stroke="#000080"></path><path d="M338 336L319 352L373 360Z" fill="#9b00ff" stroke="#9b00ff"></path><path d="M377 424L436 385L405 358Z" fill="#9b00ff" stroke="#9b00ff"></path><path d="M321 157L295 189L325 201Z" fill="#9b00ff" stroke="#9b00ff"></path><path d="M311 243L304 342L338 336Z" fill="#8c01f2" stroke="#8c01f2"></path><path d="M601 414L648 350L569 367Z" fill="#6101cb" stroke="#6101cb"></path><path d="M454 60L381 70L395 85Z" fill="#7e01e5" stroke="#7e01e5"></path><path d="M395 85L381 70L374 149Z" fill="#000080" stroke="#000080"></path><path d="M321 157L269 136L295 189Z" fill="#8c01f2" stroke="#8c01f2"></path><path d="M259 281L304 342L311 243Z" fill="#9b00ff" stroke="#9b00ff"></path><path d="M494 466L534 387L474 380Z" fill="#000000" stroke="#000000"></path><path d="M566 413L601 414L569 367Z" fill="#8c01f2" stroke="#8c01f2"></path><path d="M494 466L474 380L436 385Z" fill="#6101cb" stroke="#6101cb"></path><path d="M360 410L373 360L308 378Z" fill="#8c01f2" stroke="#8c01f2"></path><path d="M377 424L405 358L373 360Z" fill="#09008f" stroke="#09008f"></path><path d="M308 378L373 360L319 352Z" fill="#8c01f2" stroke="#8c01f2"></path><path d="M580 435L601 414L566 413Z" fill="#000080" stroke="#000080"></path><path d="M647 176L662 142L640 146Z" fill="#2a009f" stroke="#2a009f"></path><path d="M640 146L651 108L554 107Z" fill="#8c01f2" stroke="#8c01f2"></path><path d="M720 185L662 142L647 176Z" fill="#6101cb" stroke="#6101cb"></path><path d="M360 410L377 424L373 360Z" fill="#6f01d8" stroke="#6f01d8"></path><path d="M543 440L580 435L566 413Z" fill="#7e01e5" stroke="#7e01e5"></path><path d="M503 29L502 31L543 85Z" fill="#09008f" stroke="#09008f"></path><path d="M543 85L502 31L501 112Z" fill="#000080" stroke="#000080"></path><path d="M454 60L432 0L381 70Z" fill="#5300be" stroke="#5300be"></path><path d="M583 42L503 29L543 85Z" fill="#7e01e5" stroke="#7e01e5"></path><path d="M502 31L485 0L454 60Z" fill="#09008f" stroke="#09008f"></path><path d="M662 142L651 108L640 146Z" fill="#000000" stroke="#000000"></path><path d="M265 224L265 237L311 243Z" fill="#2a009f" stroke="#2a009f"></path><path d="M214 175L265 224L295 189Z" fill="#9b00ff" stroke="#9b00ff"></path><path d="M295 189L265 224L311 243Z" fill="#5300be" stroke="#5300be"></path><path d="M264 356L308 378L304 342Z" fill="#7e01e5" stroke="#7e01e5"></path><path d="M304 342L308 378L319 352Z" fill="#4000ae" stroke="#4000ae"></path><path d="M342 470L418 472L377 424Z" fill="#2a009f" stroke="#2a009f"></path><path d="M410 437L494 466L436 385Z" fill="#000080" stroke="#000080"></path><path d="M543 440L554 476L580 435Z" fill="#000000" stroke="#000000"></path><path d="M259 281L262 270L218 278Z" fill="#2a009f" stroke="#2a009f"></path><path d="M265 237L262 270L311 243Z" fill="#4000ae" stroke="#4000ae"></path><path d="M637 71L583 42L554 107Z" fill="#7e01e5" stroke="#7e01e5"></path><path d="M218 278L262 270L265 237Z" fill="#9b00ff" stroke="#9b00ff"></path><path d="M262 270L259 281L311 243Z" fill="#8c01f2" stroke="#8c01f2"></path><path d="M648 350L690 340L660 296Z" fill="#9b00ff" stroke="#9b00ff"></path><path d="M660 296L737 281L666 260Z" fill="#000000" stroke="#000000"></path><path d="M666 260L720 185L651 250Z" fill="#5300be" stroke="#5300be"></path><path d="M701 356L690 340L648 350Z" fill="#8c01f2" stroke="#8c01f2"></path><path d="M701 356L648 350L690 415Z" fill="#000080" stroke="#000080"></path><path d="M381 70L310 95L374 149Z" fill="#6f01d8" stroke="#6f01d8"></path><path d="M651 108L637 71L554 107Z" fill="#2a009f" stroke="#2a009f"></path><path d="M259 281L258 316L304 342Z" fill="#000080" stroke="#000080"></path><path d="M377 424L418 472L410 437Z" fill="#6f01d8" stroke="#6f01d8"></path><path d="M410 437L418 472L494 466Z" fill="#000000" stroke="#000000"></path><path d="M324 440L377 424L360 410Z" fill="#000000" stroke="#000000"></path><path d="M258 316L261 329L304 342Z" fill="#09008f" stroke="#09008f"></path><path d="M310 95L269 136L321 157Z" fill="#000080" stroke="#000080"></path><path d="M195 234L218 278L265 237Z" fill="#6101cb" stroke="#6101cb"></path><path d="M494 466L554 476L543 440Z" fill="#8c01f2" stroke="#8c01f2"></path><path d="M580 435L629 452L601 414Z" fill="#6101cb" stroke="#6101cb"></path><path d="M522 540L554 476L494 466Z" fill="#09008f" stroke="#09008f"></path><path d="M732 225L720 185L666 260Z" fill="#5300be" stroke="#5300be"></path><path d="M662 142L716 98L651 108Z" fill="#8c01f2" stroke="#8c01f2"></path><path d="M651 108L716 98L637 71Z" fill="#6f01d8" stroke="#6f01d8"></path><path d="M506 0L485 0L503 29Z" fill="#5300be" stroke="#5300be"></path><path d="M503 29L485 0L502 31Z" fill="#2a009f" stroke="#2a009f"></path><path d="M381 70L338 38L310 95Z" fill="#9b00ff" stroke="#9b00ff"></path><path d="M690 415L648 350L601 414Z" fill="#6f01d8" stroke="#6f01d8"></path><path d="M737 281L732 225L666 260Z" fill="#5300be" stroke="#5300be"></path><path d="M217 363L264 356L261 329Z" fill="#000000" stroke="#000000"></path><path d="M261 329L264 356L304 342Z" fill="#5300be" stroke="#5300be"></path><path d="M308 378L324 440L360 410Z" fill="#6101cb" stroke="#6101cb"></path><path d="M568 0L506 0L503 29Z" fill="#8c01f2" stroke="#8c01f2"></path><path d="M568 0L503 29L583 42Z" fill="#5300be" stroke="#5300be"></path><path d="M485 0L432 0L454 60Z" fill="#000000" stroke="#000000"></path><path d="M737 281L660 296L690 340Z" fill="#7e01e5" stroke="#7e01e5"></path><path d="M399 506L433 490L418 472Z" fill="#6101cb" stroke="#6101cb"></path><path d="M418 472L433 490L494 466Z" fill="#6f01d8" stroke="#6f01d8"></path><path d="M304 446L324 440L308 378Z" fill="#9b00ff" stroke="#9b00ff"></path><path d="M357 0L338 38L381 70Z" fill="#9b00ff" stroke="#9b00ff"></path><path d="M310 95L262 107L269 136Z" fill="#7e01e5" stroke="#7e01e5"></path><path d="M583 482L629 452L580 435Z" fill="#6f01d8" stroke="#6f01d8"></path><path d="M740 328L737 281L690 340Z" fill="#8c01f2" stroke="#8c01f2"></path><path d="M603 494L583 482L557 540Z" fill="#6f01d8" stroke="#6f01d8"></path><path d="M554 476L583 482L580 435Z" fill="#6101cb" stroke="#6101cb"></path><path d="M606 0L568 0L583 42Z" fill="#7e01e5" stroke="#7e01e5"></path><path d="M288 24L262 107L310 95Z" fill="#8c01f2" stroke="#8c01f2"></path><path d="M195 234L265 237L265 224Z" fill="#6f01d8" stroke="#6f01d8"></path><path d="M259 281L218 278L258 316Z" fill="#6101cb" stroke="#6101cb"></path><path d="M637 71L613 18L583 42Z" fill="#09008f" stroke="#09008f"></path><path d="M651 20L613 18L637 71Z" fill="#6101cb" stroke="#6101cb"></path><path d="M304 446L342 470L324 440Z" fill="#09008f" stroke="#09008f"></path><path d="M324 440L342 470L377 424Z" fill="#2a009f" stroke="#2a009f"></path><path d="M749 270L747 211L732 225Z" fill="#09008f" stroke="#09008f"></path><path d="M732 225L747 211L720 185Z" fill="#6101cb" stroke="#6101cb"></path><path d="M741 133L716 98L662 142Z" fill="#6f01d8" stroke="#6f01d8"></path><path d="M214 175L295 189L269 136Z" fill="#6f01d8" stroke="#6f01d8"></path><path d="M258 316L217 363L261 329Z" fill="#000080" stroke="#000080"></path><path d="M737 281L749 270L732 225Z" fill="#4000ae" stroke="#4000ae"></path><path d="M766 322L749 270L737 281Z" fill="#6f01d8" stroke="#6f01d8"></path><path d="M662 446L601 414L629 452Z" fill="#6101cb" stroke="#6101cb"></path><path d="M662 446L690 415L601 414Z" fill="#6f01d8" stroke="#6f01d8"></path><path d="M701 356L740 328L690 340Z" fill="#9b00ff" stroke="#9b00ff"></path><path d="M231 399L304 446L308 378Z" fill="#5300be" stroke="#5300be"></path><path d="M231 399L308 378L264 356Z" fill="#000000" stroke="#000000"></path><path d="M692 483L662 446L629 452Z" fill="#6101cb" stroke="#6101cb"></path><path d="M743 391L740 328L701 356Z" fill="#4000ae" stroke="#4000ae"></path><path d="M219 106L235 128L262 107Z" fill="#8c01f2" stroke="#8c01f2"></path><path d="M262 107L235 128L269 136Z" fill="#09008f" stroke="#09008f"></path><path d="M651 20L606 0L613 18Z" fill="#8c01f2" stroke="#8c01f2"></path><path d="M613 18L606 0L583 42Z" fill="#5300be" stroke="#5300be"></path><path d="M342 470L399 506L418 472Z" fill="#9b00ff" stroke="#9b00ff"></path><path d="M433 490L477 521L494 466Z" fill="#4000ae" stroke="#4000ae"></path><path d="M432 0L357 0L381 70Z" fill="#5300be" stroke="#5300be"></path><path d="M338 38L288 24L310 95Z" fill="#8c01f2" stroke="#8c01f2"></path><path d="M741 133L662 142L720 185Z" fill="#000080" stroke="#000080"></path><path d="M453 540L477 521L433 490Z" fill="#8c01f2" stroke="#8c01f2"></path><path d="M357 0L354 0L338 38Z" fill="#9b00ff" stroke="#9b00ff"></path><path d="M557 540L583 482L554 476Z" fill="#8c01f2" stroke="#8c01f2"></path><path d="M583 482L603 494L629 452Z" fill="#7e01e5" stroke="#7e01e5"></path><path d="M235 128L214 175L269 136Z" fill="#9b00ff" stroke="#9b00ff"></path><path d="M716 98L651 20L637 71Z" fill="#2a009f" stroke="#2a009f"></path><path d="M765 157L741 133L720 185Z" fill="#9b00ff" stroke="#9b00ff"></path><path d="M214 175L195 234L265 224Z" fill="#9b00ff" stroke="#9b00ff"></path><path d="M218 278L217 363L258 316Z" fill="#7e01e5" stroke="#7e01e5"></path><path d="M662 446L697 438L690 415Z" fill="#6f01d8" stroke="#6f01d8"></path><path d="M690 415L743 391L701 356Z" fill="#9b00ff" stroke="#9b00ff"></path><path d="M692 483L697 438L662 446Z" fill="#09008f" stroke="#09008f"></path><path d="M176 302L217 363L218 278Z" fill="#09008f" stroke="#09008f"></path><path d="M794 359L766 322L740 328Z" fill="#6101cb" stroke="#6101cb"></path><path d="M740 328L766 322L737 281Z" fill="#9b00ff" stroke="#9b00ff"></path><path d="M771 152L765 157L820 169Z" fill="#09008f" stroke="#09008f"></path><path d="M747 211L765 157L720 185Z" fill="#6101cb" stroke="#6101cb"></path><path d="M354 0L288 24L338 38Z" fill="#6101cb" stroke="#6101cb"></path><path d="M217 363L231 399L264 356Z" fill="#6f01d8" stroke="#6f01d8"></path><path d="M453 540L487 540L477 521Z" fill="#2a009f" stroke="#2a009f"></path><path d="M477 521L522 540L494 466Z" fill="#2a009f" stroke="#2a009f"></path><path d="M765 157L747 211L797 212Z" fill="#000000" stroke="#000000"></path><path d="M787 104L737 58L716 98Z" fill="#4000ae" stroke="#4000ae"></path><path d="M399 506L453 540L433 490Z" fill="#000080" stroke="#000080"></path><path d="M487 540L522 540L477 521Z" fill="#000000" stroke="#000000"></path><path d="M259 19L219 106L262 107Z" fill="#9b00ff" stroke="#9b00ff"></path><path d="M235 128L185 162L214 175Z" fill="#8c01f2" stroke="#8c01f2"></path><path d="M214 175L166 203L195 234Z" fill="#09008f" stroke="#09008f"></path><path d="M742 426L743 391L690 415Z" fill="#2a009f" stroke="#2a009f"></path><path d="M797 212L747 211L749 270Z" fill="#6101cb" stroke="#6101cb"></path><path d="M765 157L771 152L741 133Z" fill="#000080" stroke="#000080"></path><path d="M737 58L666 0L651 20Z" fill="#2a009f" stroke="#2a009f"></path><path d="M522 540L557 540L554 476Z" fill="#09008f" stroke="#09008f"></path><path d="M742 488L742 426L697 438Z" fill="#9b00ff" stroke="#9b00ff"></path><path d="M737 58L651 20L716 98Z" fill="#4000ae" stroke="#4000ae"></path><path d="M651 20L666 0L606 0Z" fill="#5300be" stroke="#5300be"></path><path d="M219 106L185 162L235 128Z" fill="#6101cb" stroke="#6101cb"></path><path d="M138 290L176 302L132 276Z" fill="#8c01f2" stroke="#8c01f2"></path><path d="M195 234L176 302L218 278Z" fill="#000080" stroke="#000080"></path><path d="M217 363L211 402L231 399Z" fill="#000000" stroke="#000000"></path><path d="M117 379L211 402L217 363Z" fill="#6f01d8" stroke="#6f01d8"></path><path d="M218 453L271 498L304 446Z" fill="#7e01e5" stroke="#7e01e5"></path><path d="M347 540L357 540L342 470Z" fill="#000000" stroke="#000000"></path><path d="M342 470L357 540L399 506Z" fill="#09008f" stroke="#09008f"></path><path d="M399 506L357 540L453 540Z" fill="#000000" stroke="#000000"></path><path d="M787 104L716 98L741 133Z" fill="#4000ae" stroke="#4000ae"></path><path d="M826 258L797 212L749 270Z" fill="#6101cb" stroke="#6101cb"></path><path d="M771 152L787 104L741 133Z" fill="#2a009f" stroke="#2a009f"></path><path d="M692 483L629 452L603 494Z" fill="#6101cb" stroke="#6101cb"></path><path d="M697 438L742 426L690 415Z" fill="#4000ae" stroke="#4000ae"></path><path d="M743 391L794 359L740 328Z" fill="#9b00ff" stroke="#9b00ff"></path><path d="M825 297L826 258L749 270Z" fill="#000080" stroke="#000080"></path><path d="M671 540L692 483L603 494Z" fill="#5300be" stroke="#5300be"></path><path d="M279 0L259 19L288 24Z" fill="#5300be" stroke="#5300be"></path><path d="M288 24L259 19L262 107Z" fill="#6101cb" stroke="#6101cb"></path><path d="M219 106L169 118L185 162Z" fill="#6f01d8" stroke="#6f01d8"></path><path d="M354 0L279 0L288 24Z" fill="#000000" stroke="#000000"></path><path d="M185 162L166 203L214 175Z" fill="#6f01d8" stroke="#6f01d8"></path><path d="M347 540L342 470L303 540Z" fill="#6101cb" stroke="#6101cb"></path><path d="M271 498L342 470L304 446Z" fill="#6101cb" stroke="#6101cb"></path><path d="M557 540L619 540L603 494Z" fill="#000080" stroke="#000080"></path><path d="M742 488L764 411L742 426Z" fill="#9b00ff" stroke="#9b00ff"></path><path d="M742 426L764 411L743 391Z" fill="#000080" stroke="#000080"></path><path d="M218 453L304 446L231 399Z" fill="#000000" stroke="#000000"></path><path d="M797 391L794 359L743 391Z" fill="#000000" stroke="#000000"></path><path d="M795 117L787 104L771 152Z" fill="#000080" stroke="#000080"></path><path d="M167 473L218 453L148 453Z" fill="#6101cb" stroke="#6101cb"></path><path d="M211 402L218 453L231 399Z" fill="#6f01d8" stroke="#6f01d8"></path><path d="M820 169L795 117L771 152Z" fill="#4000ae" stroke="#4000ae"></path><path d="M180 67L169 118L219 106Z" fill="#5300be" stroke="#5300be"></path><path d="M185 162L136 186L166 203Z" fill="#6101cb" stroke="#6101cb"></path><path d="M859 388L811 339L794 359Z" fill="#000080" stroke="#000080"></path><path d="M794 359L811 339L766 322Z" fill="#5300be" stroke="#5300be"></path><path d="M797 212L820 169L765 157Z" fill="#6f01d8" stroke="#6f01d8"></path><path d="M787 104L768 54L737 58Z" fill="#000080" stroke="#000080"></path><path d="M737 58L739 0L666 0Z" fill="#8c01f2" stroke="#8c01f2"></path><path d="M829 69L768 54L787 104Z" fill="#6f01d8" stroke="#6f01d8"></path><path d="M825 297L749 270L766 322Z" fill="#5300be" stroke="#5300be"></path><path d="M279 0L239 0L259 19Z" fill="#6f01d8" stroke="#6f01d8"></path><path d="M200 26L180 67L219 106Z" fill="#6101cb" stroke="#6101cb"></path><path d="M874 212L820 169L797 212Z" fill="#2a009f" stroke="#2a009f"></path><path d="M803 0L750 0L768 54Z" fill="#8c01f2" stroke="#8c01f2"></path><path d="M238 510L303 540L271 498Z" fill="#7e01e5" stroke="#7e01e5"></path><path d="M271 498L303 540L342 470Z" fill="#000000" stroke="#000000"></path><path d="M811 339L825 297L766 322Z" fill="#6101cb" stroke="#6101cb"></path><path d="M764 411L797 391L743 391Z" fill="#8c01f2" stroke="#8c01f2"></path><path d="M858 295L841 284L825 297Z" fill="#9b00ff" stroke="#9b00ff"></path><path d="M829 426L797 391L764 411Z" fill="#7e01e5" stroke="#7e01e5"></path><path d="M132 276L176 302L195 234Z" fill="#8c01f2" stroke="#8c01f2"></path><path d="M176 302L116 342L217 363Z" fill="#5300be" stroke="#5300be"></path><path d="M132 276L195 234L166 203Z" fill="#000000" stroke="#000000"></path><path d="M146 106L158 118L169 118Z" fill="#6f01d8" stroke="#6f01d8"></path><path d="M169 118L158 118L185 162Z" fill="#6f01d8" stroke="#6f01d8"></path><path d="M619 540L671 540L603 494Z" fill="#5300be" stroke="#5300be"></path><path d="M692 483L742 488L697 438Z" fill="#6f01d8" stroke="#6f01d8"></path><path d="M200 26L219 106L259 19Z" fill="#8c01f2" stroke="#8c01f2"></path><path d="M158 118L136 186L185 162Z" fill="#09008f" stroke="#09008f"></path><path d="M136 186L132 276L166 203Z" fill="#4000ae" stroke="#4000ae"></path><path d="M750 0L739 0L737 58Z" fill="#09008f" stroke="#09008f"></path><path d="M710 540L742 488L692 483Z" fill="#4000ae" stroke="#4000ae"></path><path d="M239 0L200 26L259 19Z" fill="#8c01f2" stroke="#8c01f2"></path><path d="M825 297L841 284L826 258Z" fill="#4000ae" stroke="#4000ae"></path><path d="M826 258L874 212L797 212Z" fill="#8c01f2" stroke="#8c01f2"></path><path d="M858 295L825 297L811 339Z" fill="#6101cb" stroke="#6101cb"></path><path d="M218 453L238 510L271 498Z" fill="#6101cb" stroke="#6101cb"></path><path d="M167 473L238 510L218 453Z" fill="#6f01d8" stroke="#6f01d8"></path><path d="M836 104L787 104L795 117Z" fill="#6f01d8" stroke="#6f01d8"></path><path d="M768 54L750 0L737 58Z" fill="#000000" stroke="#000000"></path><path d="M125 43L146 106L180 67Z" fill="#6101cb" stroke="#6101cb"></path><path d="M180 67L146 106L169 118Z" fill="#000000" stroke="#000000"></path><path d="M106 138L112 186L136 186Z" fill="#4000ae" stroke="#4000ae"></path><path d="M239 0L202 0L200 26Z" fill="#6101cb" stroke="#6101cb"></path><path d="M200 26L125 43L180 67Z" fill="#2a009f" stroke="#2a009f"></path><path d="M671 540L710 540L692 483Z" fill="#2a009f" stroke="#2a009f"></path><path d="M106 138L136 186L158 118Z" fill="#5300be" stroke="#5300be"></path><path d="M136 186L89 254L132 276Z" fill="#6f01d8" stroke="#6f01d8"></path><path d="M710 540L752 509L742 488Z" fill="#2a009f" stroke="#2a009f"></path><path d="M742 488L829 426L764 411Z" fill="#5300be" stroke="#5300be"></path><path d="M876 369L858 295L811 339Z" fill="#5300be" stroke="#5300be"></path><path d="M859 388L794 359L797 391Z" fill="#8c01f2" stroke="#8c01f2"></path><path d="M841 284L874 212L826 258Z" fill="#6f01d8" stroke="#6f01d8"></path><path d="M97 300L116 342L138 290Z" fill="#6101cb" stroke="#6101cb"></path><path d="M138 290L116 342L176 302Z" fill="#8c01f2" stroke="#8c01f2"></path><path d="M97 300L138 290L132 276Z" fill="#000080" stroke="#000080"></path><path d="M871 110L836 104L820 169Z" fill="#000000" stroke="#000000"></path><path d="M820 169L836 104L795 117Z" fill="#5300be" stroke="#5300be"></path><path d="M836 104L829 69L787 104Z" fill="#9b00ff" stroke="#9b00ff"></path><path d="M116 342L117 379L217 363Z" fill="#8c01f2" stroke="#8c01f2"></path><path d="M148 453L218 453L211 402Z" fill="#6f01d8" stroke="#6f01d8"></path><path d="M89 254L97 300L132 276Z" fill="#09008f" stroke="#09008f"></path><path d="M116 342L61 353L117 379Z" fill="#000080" stroke="#000080"></path><path d="M117 379L133 418L211 402Z" fill="#6f01d8" stroke="#6f01d8"></path><path d="M792 513L829 426L742 488Z" fill="#6101cb" stroke="#6101cb"></path><path d="M146 106L106 138L158 118Z" fill="#8c01f2" stroke="#8c01f2"></path><path d="M112 186L89 254L136 186Z" fill="#2a009f" stroke="#2a009f"></path><path d="M89 107L106 138L146 106Z" fill="#4000ae" stroke="#4000ae"></path><path d="M148 453L165 475L167 473Z" fill="#9b00ff" stroke="#9b00ff"></path><path d="M216 540L217 540L238 510Z" fill="#000080" stroke="#000080"></path><path d="M907 265L874 212L841 284Z" fill="#000000" stroke="#000000"></path><path d="M836 104L871 110L829 69Z" fill="#7e01e5" stroke="#7e01e5"></path><path d="M73 207L89 254L112 186Z" fill="#9b00ff" stroke="#9b00ff"></path><path d="M133 418L148 453L211 402Z" fill="#7e01e5" stroke="#7e01e5"></path><path d="M710 540L744 540L752 509Z" fill="#4000ae" stroke="#4000ae"></path><path d="M853 488L840 424L829 426Z" fill="#000080" stroke="#000080"></path><path d="M216 540L238 510L167 473Z" fill="#7e01e5" stroke="#7e01e5"></path><path d="M238 510L217 540L303 540Z" fill="#7e01e5" stroke="#7e01e5"></path><path d="M165 475L216 540L167 473Z" fill="#6101cb" stroke="#6101cb"></path><path d="M829 426L859 388L797 391Z" fill="#09008f" stroke="#09008f"></path><path d="M920 208L889 179L874 212Z" fill="#000000" stroke="#000000"></path><path d="M792 513L742 488L752 509Z" fill="#2a009f" stroke="#2a009f"></path><path d="M840 424L859 388L829 426Z" fill="#9b00ff" stroke="#9b00ff"></path><path d="M829 69L803 0L768 54Z" fill="#4000ae" stroke="#4000ae"></path><path d="M744 540L792 513L752 509Z" fill="#09008f" stroke="#09008f"></path><path d="M130 0L125 43L200 26Z" fill="#4000ae" stroke="#4000ae"></path><path d="M889 179L871 110L820 169Z" fill="#000000" stroke="#000000"></path><path d="M829 69L850 0L803 0Z" fill="#000080" stroke="#000080"></path><path d="M51 203L73 207L50 157Z" fill="#8c01f2" stroke="#8c01f2"></path><path d="M50 157L73 207L112 186Z" fill="#4000ae" stroke="#4000ae"></path><path d="M54 292L70 321L97 300Z" fill="#5300be" stroke="#5300be"></path><path d="M74 400L133 418L117 379Z" fill="#8c01f2" stroke="#8c01f2"></path><path d="M874 212L889 179L820 169Z" fill="#000080" stroke="#000080"></path><path d="M907 265L841 284L858 295Z" fill="#4000ae" stroke="#4000ae"></path><path d="M894 431L876 369L859 388Z" fill="#9b00ff" stroke="#9b00ff"></path><path d="M859 388L876 369L811 339Z" fill="#6101cb" stroke="#6101cb"></path><path d="M894 431L859 388L840 424Z" fill="#9b00ff" stroke="#9b00ff"></path><path d="M148 453L128 483L165 475Z" fill="#7e01e5" stroke="#7e01e5"></path><path d="M165 475L133 540L216 540Z" fill="#9b00ff" stroke="#9b00ff"></path><path d="M133 418L122 454L148 453Z" fill="#7e01e5" stroke="#7e01e5"></path><path d="M74 400L122 454L133 418Z" fill="#000000" stroke="#000000"></path><path d="M70 321L116 342L97 300Z" fill="#5300be" stroke="#5300be"></path><path d="M125 43L89 107L146 106Z" fill="#7e01e5" stroke="#7e01e5"></path><path d="M906 160L879 108L871 110Z" fill="#6101cb" stroke="#6101cb"></path><path d="M871 110L879 108L829 69Z" fill="#6f01d8" stroke="#6f01d8"></path><path d="M54 292L97 300L89 254Z" fill="#000000" stroke="#000000"></path><path d="M935 322L907 265L858 295Z" fill="#8c01f2" stroke="#8c01f2"></path><path d="M889 179L906 160L871 110Z" fill="#4000ae" stroke="#4000ae"></path><path d="M94 502L128 483L122 454Z" fill="#6f01d8" stroke="#6f01d8"></path><path d="M122 454L128 483L148 453Z" fill="#4000ae" stroke="#4000ae"></path><path d="M202 0L130 0L200 26Z" fill="#6101cb" stroke="#6101cb"></path><path d="M38 107L68 115L89 107Z" fill="#6f01d8" stroke="#6f01d8"></path><path d="M0 244L54 292L89 254Z" fill="#6f01d8" stroke="#6f01d8"></path><path d="M70 321L61 353L116 342Z" fill="#6f01d8" stroke="#6f01d8"></path><path d="M51 203L89 254L73 207Z" fill="#5300be" stroke="#5300be"></path><path d="M920 208L906 160L889 179Z" fill="#5300be" stroke="#5300be"></path><path d="M68 115L106 138L89 107Z" fill="#4000ae" stroke="#4000ae"></path><path d="M50 157L112 186L106 138Z" fill="#8c01f2" stroke="#8c01f2"></path><path d="M75 21L89 107L125 43Z" fill="#7e01e5" stroke="#7e01e5"></path><path d="M0 329L61 353L70 321Z" fill="#9b00ff" stroke="#9b00ff"></path><path d="M61 353L74 400L117 379Z" fill="#000080" stroke="#000080"></path><path d="M744 540L807 540L792 513Z" fill="#09008f" stroke="#09008f"></path><path d="M792 513L853 488L829 426Z" fill="#09008f" stroke="#09008f"></path><path d="M907 265L920 208L874 212Z" fill="#6101cb" stroke="#6101cb"></path><path d="M920 208L914 158L906 160Z" fill="#8c01f2" stroke="#8c01f2"></path><path d="M906 160L914 158L879 108Z" fill="#09008f" stroke="#09008f"></path><path d="M866 18L850 0L829 69Z" fill="#6101cb" stroke="#6101cb"></path><path d="M866 18L829 69L879 108Z" fill="#2a009f" stroke="#2a009f"></path><path d="M68 115L50 157L106 138Z" fill="#8c01f2" stroke="#8c01f2"></path><path d="M807 540L853 488L792 513Z" fill="#7e01e5" stroke="#7e01e5"></path><path d="M876 369L935 322L858 295Z" fill="#4000ae" stroke="#4000ae"></path><path d="M130 0L111 0L125 43Z" fill="#6f01d8" stroke="#6f01d8"></path><path d="M68 115L38 107L50 157Z" fill="#000080" stroke="#000080"></path><path d="M934 55L866 18L879 108Z" fill="#2a009f" stroke="#2a009f"></path><path d="M892 472L894 431L840 424Z" fill="#9b00ff" stroke="#9b00ff"></path><path d="M907 265L960 236L920 208Z" fill="#6101cb" stroke="#6101cb"></path><path d="M894 431L921 367L876 369Z" fill="#09008f" stroke="#09008f"></path><path d="M94 502L133 540L128 483Z" fill="#6101cb" stroke="#6101cb"></path><path d="M128 483L133 540L165 475Z" fill="#8c01f2" stroke="#8c01f2"></path><path d="M921 367L935 322L876 369Z" fill="#000000" stroke="#000000"></path><path d="M960 123L930 111L914 158Z" fill="#4000ae" stroke="#4000ae"></path><path d="M61 353L45 388L74 400Z" fill="#000080" stroke="#000080"></path><path d="M22 453L94 502L122 454Z" fill="#000000" stroke="#000000"></path><path d="M0 375L45 388L61 353Z" fill="#09008f" stroke="#09008f"></path><path d="M0 329L70 321L54 292Z" fill="#2a009f" stroke="#2a009f"></path><path d="M0 244L89 254L51 203Z" fill="#09008f" stroke="#09008f"></path><path d="M111 0L75 21L125 43Z" fill="#5300be" stroke="#5300be"></path><path d="M44 32L38 107L89 107Z" fill="#6101cb" stroke="#6101cb"></path><path d="M0 171L0 244L51 203Z" fill="#2a009f" stroke="#2a009f"></path><path d="M22 453L122 454L74 400Z" fill="#6101cb" stroke="#6101cb"></path><path d="M960 167L914 158L920 208Z" fill="#4000ae" stroke="#4000ae"></path><path d="M914 158L930 111L879 108Z" fill="#7e01e5" stroke="#7e01e5"></path><path d="M875 540L892 472L853 488Z" fill="#9b00ff" stroke="#9b00ff"></path><path d="M853 488L892 472L840 424Z" fill="#4000ae" stroke="#4000ae"></path><path d="M894 431L931 419L921 367Z" fill="#5300be" stroke="#5300be"></path><path d="M960 293L907 265L935 322Z" fill="#4000ae" stroke="#4000ae"></path><path d="M934 55L886 0L866 18Z" fill="#5300be" stroke="#5300be"></path><path d="M866 18L886 0L850 0Z" fill="#2a009f" stroke="#2a009f"></path><path d="M960 254L907 265L960 293Z" fill="#5300be" stroke="#5300be"></path><path d="M960 254L960 236L907 265Z" fill="#6101cb" stroke="#6101cb"></path><path d="M960 293L935 322L960 355Z" fill="#8c01f2" stroke="#8c01f2"></path><path d="M29 517L107 540L94 502Z" fill="#4000ae" stroke="#4000ae"></path><path d="M94 502L107 540L133 540Z" fill="#09008f" stroke="#09008f"></path><path d="M960 355L935 322L921 367Z" fill="#8c01f2" stroke="#8c01f2"></path><path d="M892 472L931 419L894 431Z" fill="#4000ae" stroke="#4000ae"></path><path d="M0 171L51 203L50 157Z" fill="#09008f" stroke="#09008f"></path><path d="M960 236L960 167L920 208Z" fill="#09008f" stroke="#09008f"></path><path d="M930 111L934 55L879 108Z" fill="#4000ae" stroke="#4000ae"></path><path d="M0 244L0 273L54 292Z" fill="#09008f" stroke="#09008f"></path><path d="M75 21L44 32L89 107Z" fill="#8c01f2" stroke="#8c01f2"></path><path d="M0 139L0 171L50 157Z" fill="#4000ae" stroke="#4000ae"></path><path d="M40 0L44 32L75 21Z" fill="#8c01f2" stroke="#8c01f2"></path><path d="M0 139L50 157L38 107Z" fill="#5300be" stroke="#5300be"></path><path d="M960 69L934 55L930 111Z" fill="#8c01f2" stroke="#8c01f2"></path><path d="M960 380L960 355L921 367Z" fill="#6f01d8" stroke="#6f01d8"></path><path d="M0 273L0 329L54 292Z" fill="#09008f" stroke="#09008f"></path><path d="M45 388L22 453L74 400Z" fill="#7e01e5" stroke="#7e01e5"></path><path d="M807 540L875 540L853 488Z" fill="#6101cb" stroke="#6101cb"></path><path d="M892 472L960 450L931 419Z" fill="#5300be" stroke="#5300be"></path><path d="M960 167L960 123L914 158Z" fill="#8c01f2" stroke="#8c01f2"></path><path d="M0 89L0 139L38 107Z" fill="#000000" stroke="#000000"></path><path d="M960 450L960 380L931 419Z" fill="#6f01d8" stroke="#6f01d8"></path><path d="M931 419L960 380L921 367Z" fill="#000000" stroke="#000000"></path><path d="M960 123L960 105L930 111Z" fill="#5300be" stroke="#5300be"></path><path d="M0 329L0 375L61 353Z" fill="#8c01f2" stroke="#8c01f2"></path><path d="M0 413L22 453L45 388Z" fill="#6101cb" stroke="#6101cb"></path><path d="M111 0L40 0L75 21Z" fill="#000080" stroke="#000080"></path><path d="M0 61L0 89L38 107Z" fill="#8c01f2" stroke="#8c01f2"></path><path d="M0 61L38 107L44 32Z" fill="#000000" stroke="#000000"></path><path d="M960 105L960 69L930 111Z" fill="#4000ae" stroke="#4000ae"></path><path d="M934 55L960 0L886 0Z" fill="#6101cb" stroke="#6101cb"></path><path d="M0 375L0 413L45 388Z" fill="#000000" stroke="#000000"></path><path d="M0 0L0 61L44 32Z" fill="#09008f" stroke="#09008f"></path><path d="M0 413L0 433L22 453Z" fill="#9b00ff" stroke="#9b00ff"></path><path d="M22 453L29 517L94 502Z" fill="#000000" stroke="#000000"></path><path d="M960 521L960 450L892 472Z" fill="#8c01f2" stroke="#8c01f2"></path><path d="M0 481L29 517L22 453Z" fill="#8c01f2" stroke="#8c01f2"></path><path d="M960 69L960 0L934 55Z" fill="#7e01e5" stroke="#7e01e5"></path><path d="M0 433L0 481L22 453Z" fill="#7e01e5" stroke="#7e01e5"></path><path d="M875 540L933 540L892 472Z" fill="#8c01f2" stroke="#8c01f2"></path><path d="M40 0L0 0L44 32Z" fill="#000000" stroke="#000000"></path><path d="M0 540L21 540L29 517Z" fill="#5300be" stroke="#5300be"></path><path d="M29 517L21 540L107 540Z" fill="#6f01d8" stroke="#6f01d8"></path><path d="M933 540L960 521L892 472Z" fill="#6101cb" stroke="#6101cb"></path><path d="M933 540L960 540L960 521Z" fill="#2a009f" stroke="#2a009f"></path><path d="M0 481L0 540L29 517Z" fill="#6f01d8" stroke="#6f01d8"></path></g></svg>