<svg id="visual" viewBox="0 0 1920 100" width="1920" height="100" xmlns="http://www.w3.org/2000/svg" xmlns:xlink="http://www.w3.org/1999/xlink" version="1.1"><path d="M0 76L26.7 73.3C53.3 70.7 106.7 65.3 160 55.3C213.3 45.3 266.7 30.7 320 29.2C373.3 27.7 426.7 39.3 480 41.5C533.3 43.7 586.7 36.3 640 35.3C693.3 34.3 746.7 39.7 800 48.2C853.3 56.7 906.7 68.3 960 66.8C1013.3 65.3 1066.7 50.7 1120 40.5C1173.3 30.3 1226.7 24.7 1280 22.3C1333.3 20 1386.7 21 1440 25.8C1493.3 30.7 1546.7 39.3 1600 38.5C1653.3 37.7 1706.7 27.3 1760 33.2C1813.3 39 1866.7 61 1893.3 72L1920 83L1920 101L1893.3 101C1866.7 101 1813.3 101 1760 101C1706.7 101 1653.3 101 1600 101C1546.7 101 1493.3 101 1440 101C1386.7 101 1333.3 101 1280 101C1226.7 101 1173.3 101 1120 101C1066.7 101 1013.3 101 960 101C906.7 101 853.3 101 800 101C746.7 101 693.3 101 640 101C586.7 101 533.3 101 480 101C426.7 101 373.3 101 320 101C266.7 101 213.3 101 160 101C106.7 101 53.3 101 26.7 101L0 101Z" fill="#c100ff"></path><path d="M0 79L26.7 78.3C53.3 77.7 106.7 76.3 160 70C213.3 63.7 266.7 52.3 320 48.8C373.3 45.3 426.7 49.7 480 54.3C533.3 59 586.7 64 640 63C693.3 62 746.7 55 800 57.2C853.3 59.3 906.7 70.7 960 70.8C1013.3 71 1066.7 60 1120 58.7C1173.3 57.3 1226.7 65.7 1280 66.5C1333.3 67.3 1386.7 60.7 1440 59.2C1493.3 57.7 1546.7 61.3 1600 58C1653.3 54.7 1706.7 44.3 1760 44.8C1813.3 45.3 1866.7 56.7 1893.3 62.3L1920 68L1920 101L1893.3 101C1866.7 101 1813.3 101 1760 101C1706.7 101 1653.3 101 1600 101C1546.7 101 1493.3 101 1440 101C1386.7 101 1333.3 101 1280 101C1226.7 101 1173.3 101 1120 101C1066.7 101 1013.3 101 960 101C906.7 101 853.3 101 800 101C746.7 101 693.3 101 640 101C586.7 101 533.3 101 480 101C426.7 101 373.3 101 320 101C266.7 101 213.3 101 160 101C106.7 101 53.3 101 26.7 101L0 101Z" fill="#a304e6"></path><path d="M0 47L26.7 49.7C53.3 52.3 106.7 57.7 160 60C213.3 62.3 266.7 61.7 320 63C373.3 64.3 426.7 67.7 480 65.8C533.3 64 586.7 57 640 59.3C693.3 61.7 746.7 73.3 800 76.3C853.3 79.3 906.7 73.7 960 69.5C1013.3 65.3 1066.7 62.7 1120 64.8C1173.3 67 1226.7 74 1280 75.3C1333.3 76.7 1386.7 72.3 1440 70C1493.3 67.7 1546.7 67.3 1600 63.3C1653.3 59.3 1706.7 51.7 1760 50.3C1813.3 49 1866.7 54 1893.3 56.5L1920 59L1920 101L1893.3 101C1866.7 101 1813.3 101 1760 101C1706.7 101 1653.3 101 1600 101C1546.7 101 1493.3 101 1440 101C1386.7 101 1333.3 101 1280 101C1226.7 101 1173.3 101 1120 101C1066.7 101 1013.3 101 960 101C906.7 101 853.3 101 800 101C746.7 101 693.3 101 640 101C586.7 101 533.3 101 480 101C426.7 101 373.3 101 320 101C266.7 101 213.3 101 160 101C106.7 101 53.3 101 26.7 101L0 101Z" fill="#8704cc"></path><path d="M0 65L26.7 65.7C53.3 66.3 106.7 67.7 160 68.3C213.3 69 266.7 69 320 72.5C373.3 76 426.7 83 480 83C533.3 83 586.7 76 640 71.5C693.3 67 746.7 65 800 63.3C853.3 61.7 906.7 60.3 960 63.7C1013.3 67 1066.7 75 1120 80.2C1173.3 85.3 1226.7 87.7 1280 83.5C1333.3 79.3 1386.7 68.7 1440 67.7C1493.3 66.7 1546.7 75.3 1600 79.8C1653.3 84.3 1706.7 84.7 1760 81C1813.3 77.3 1866.7 69.7 1893.3 65.8L1920 62L1920 101L1893.3 101C1866.7 101 1813.3 101 1760 101C1706.7 101 1653.3 101 1600 101C1546.7 101 1493.3 101 1440 101C1386.7 101 1333.3 101 1280 101C1226.7 101 1173.3 101 1120 101C1066.7 101 1013.3 101 960 101C906.7 101 853.3 101 800 101C746.7 101 693.3 101 640 101C586.7 101 533.3 101 480 101C426.7 101 373.3 101 320 101C266.7 101 213.3 101 160 101C106.7 101 53.3 101 26.7 101L0 101Z" fill="#6c02b2"></path><path d="M0 71L26.7 74.3C53.3 77.7 106.7 84.3 160 86.3C213.3 88.3 266.7 85.7 320 84.8C373.3 84 426.7 85 480 86.5C533.3 88 586.7 90 640 88.3C693.3 86.7 746.7 81.3 800 81.5C853.3 81.7 906.7 87.3 960 86.7C1013.3 86 1066.7 79 1120 75.8C1173.3 72.7 1226.7 73.3 1280 75.3C1333.3 77.3 1386.7 80.7 1440 83.2C1493.3 85.7 1546.7 87.3 1600 88.3C1653.3 89.3 1706.7 89.7 1760 87.7C1813.3 85.7 1866.7 81.3 1893.3 79.2L1920 77L1920 101L1893.3 101C1866.7 101 1813.3 101 1760 101C1706.7 101 1653.3 101 1600 101C1546.7 101 1493.3 101 1440 101C1386.7 101 1333.3 101 1280 101C1226.7 101 1173.3 101 1120 101C1066.7 101 1013.3 101 960 101C906.7 101 853.3 101 800 101C746.7 101 693.3 101 640 101C586.7 101 533.3 101 480 101C426.7 101 373.3 101 320 101C266.7 101 213.3 101 160 101C106.7 101 53.3 101 26.7 101L0 101Z" fill="#530098"></path></svg>